<svg xmlns="http://www.w3.org/2000/svg" width="1366" height="621" style="cursor: move;"><g transform="translate(472.1671867121955,133.53598649006395) scale(0.5)"><path class="link" marker-end="" d="M203,170.5, 443.5,360.5" style="stroke-width: 0.5; stroke-opacity: 1; stroke: rgb(80, 80, 80);"></path><path class="link" marker-end="" d="M203,170.5, 586.5,360.5" style="stroke-width: 0.5; stroke-opacity: 1; stroke: rgb(80, 80, 80);"></path><path class="link" marker-end="" d="M203,170.5, 729.5,360.5" style="stroke-width: 0.5; stroke-opacity: 1; stroke: rgb(80, 80, 80);"></path><path class="link" marker-end="" d="M203,170.5, 872.5,360.5" style="stroke-width: 0.5; stroke-opacity: 1; stroke: rgb(80, 80, 80);"></path><path class="link" marker-end="" d="M273,170.5, 443.5,360.5" style="stroke-width: 0.5; stroke-opacity: 1; stroke: rgb(80, 80, 80);"></path><path class="link" marker-end="" d="M273,170.5, 586.5,360.5" style="stroke-width: 0.5; stroke-opacity: 1; stroke: rgb(80, 80, 80);"></path><path class="link" marker-end="" d="M273,170.5, 729.5,360.5" style="stroke-width: 0.5; stroke-opacity: 1; stroke: rgb(80, 80, 80);"></path><path class="link" marker-end="" d="M273,170.5, 872.5,360.5" style="stroke-width: 0.5; stroke-opacity: 1; stroke: rgb(80, 80, 80);"></path><path class="link" marker-end="" d="M343,170.5, 443.5,360.5" style="stroke-width: 0.5; stroke-opacity: 1; stroke: rgb(80, 80, 80);"></path><path class="link" marker-end="" d="M343,170.5, 586.5,360.5" style="stroke-width: 0.5; stroke-opacity: 1; stroke: rgb(80, 80, 80);"></path><path class="link" marker-end="" d="M343,170.5, 729.5,360.5" style="stroke-width: 0.5; stroke-opacity: 1; stroke: rgb(80, 80, 80);"></path><path class="link" marker-end="" d="M343,170.5, 872.5,360.5" style="stroke-width: 0.5; stroke-opacity: 1; stroke: rgb(80, 80, 80);"></path><path class="link" marker-end="" d="M413,170.5, 443.5,360.5" style="stroke-width: 0.5; stroke-opacity: 1; stroke: rgb(80, 80, 80);"></path><path class="link" marker-end="" d="M413,170.5, 586.5,360.5" style="stroke-width: 0.5; stroke-opacity: 1; stroke: rgb(80, 80, 80);"></path><path class="link" marker-end="" d="M413,170.5, 729.5,360.5" style="stroke-width: 0.5; stroke-opacity: 1; stroke: rgb(80, 80, 80);"></path><path class="link" marker-end="" d="M413,170.5, 872.5,360.5" style="stroke-width: 0.5; stroke-opacity: 1; stroke: rgb(80, 80, 80);"></path><path class="link" marker-end="" d="M483,170.5, 443.5,360.5" style="stroke-width: 0.5; stroke-opacity: 1; stroke: rgb(80, 80, 80);"></path><path class="link" marker-end="" d="M483,170.5, 586.5,360.5" style="stroke-width: 0.5; stroke-opacity: 1; stroke: rgb(80, 80, 80);"></path><path class="link" marker-end="" d="M483,170.5, 729.5,360.5" style="stroke-width: 0.5; stroke-opacity: 1; stroke: rgb(80, 80, 80);"></path><path class="link" marker-end="" d="M483,170.5, 872.5,360.5" style="stroke-width: 0.5; stroke-opacity: 1; stroke: rgb(80, 80, 80);"></path><path class="link" marker-end="" d="M553,170.5, 443.5,360.5" style="stroke-width: 0.5; stroke-opacity: 1; stroke: rgb(80, 80, 80);"></path><path class="link" marker-end="" d="M553,170.5, 586.5,360.5" style="stroke-width: 0.5; stroke-opacity: 1; stroke: rgb(80, 80, 80);"></path><path class="link" marker-end="" d="M553,170.5, 729.5,360.5" style="stroke-width: 0.5; stroke-opacity: 1; stroke: rgb(80, 80, 80);"></path><path class="link" marker-end="" d="M553,170.5, 872.5,360.5" style="stroke-width: 0.5; stroke-opacity: 1; stroke: rgb(80, 80, 80);"></path><path class="link" marker-end="" d="M623,170.5, 443.5,360.5" style="stroke-width: 0.5; stroke-opacity: 1; stroke: rgb(80, 80, 80);"></path><path class="link" marker-end="" d="M623,170.5, 586.5,360.5" style="stroke-width: 0.5; stroke-opacity: 1; stroke: rgb(80, 80, 80);"></path><path class="link" marker-end="" d="M623,170.5, 729.5,360.5" style="stroke-width: 0.5; stroke-opacity: 1; stroke: rgb(80, 80, 80);"></path><path class="link" marker-end="" d="M623,170.5, 872.5,360.5" style="stroke-width: 0.5; stroke-opacity: 1; stroke: rgb(80, 80, 80);"></path><path class="link" marker-end="" d="M693,170.5, 443.5,360.5" style="stroke-width: 0.5; stroke-opacity: 1; stroke: rgb(80, 80, 80);"></path><path class="link" marker-end="" d="M693,170.5, 586.5,360.5" style="stroke-width: 0.5; stroke-opacity: 1; stroke: rgb(80, 80, 80);"></path><path class="link" marker-end="" d="M693,170.5, 729.5,360.5" style="stroke-width: 0.5; stroke-opacity: 1; stroke: rgb(80, 80, 80);"></path><path class="link" marker-end="" d="M693,170.5, 872.5,360.5" style="stroke-width: 0.5; stroke-opacity: 1; stroke: rgb(80, 80, 80);"></path><path class="link" marker-end="" d="M763,170.5, 443.5,360.5" style="stroke-width: 0.5; stroke-opacity: 1; stroke: rgb(80, 80, 80);"></path><path class="link" marker-end="" d="M763,170.5, 586.5,360.5" style="stroke-width: 0.5; stroke-opacity: 1; stroke: rgb(80, 80, 80);"></path><path class="link" marker-end="" d="M763,170.5, 729.5,360.5" style="stroke-width: 0.5; stroke-opacity: 1; stroke: rgb(80, 80, 80);"></path><path class="link" marker-end="" d="M763,170.5, 872.5,360.5" style="stroke-width: 0.5; stroke-opacity: 1; stroke: rgb(80, 80, 80);"></path><path class="link" marker-end="" d="M833,170.5, 443.5,360.5" style="stroke-width: 0.5; stroke-opacity: 1; stroke: rgb(80, 80, 80);"></path><path class="link" marker-end="" d="M833,170.5, 586.5,360.5" style="stroke-width: 0.5; stroke-opacity: 1; stroke: rgb(80, 80, 80);"></path><path class="link" marker-end="" d="M833,170.5, 729.5,360.5" style="stroke-width: 0.5; stroke-opacity: 1; stroke: rgb(80, 80, 80);"></path><path class="link" marker-end="" d="M833,170.5, 872.5,360.5" style="stroke-width: 0.5; stroke-opacity: 1; stroke: rgb(80, 80, 80);"></path><path class="link" marker-end="" d="M903,170.5, 443.5,360.5" style="stroke-width: 0.5; stroke-opacity: 1; stroke: rgb(80, 80, 80);"></path><path class="link" marker-end="" d="M903,170.5, 586.5,360.5" style="stroke-width: 0.5; stroke-opacity: 1; stroke: rgb(80, 80, 80);"></path><path class="link" marker-end="" d="M903,170.5, 729.5,360.5" style="stroke-width: 0.5; stroke-opacity: 1; stroke: rgb(80, 80, 80);"></path><path class="link" marker-end="" d="M903,170.5, 872.5,360.5" style="stroke-width: 0.5; stroke-opacity: 1; stroke: rgb(80, 80, 80);"></path><path class="link" marker-end="" d="M973,170.5, 443.5,360.5" style="stroke-width: 0.5; stroke-opacity: 1; stroke: rgb(80, 80, 80);"></path><path class="link" marker-end="" d="M973,170.5, 586.5,360.5" style="stroke-width: 0.5; stroke-opacity: 1; stroke: rgb(80, 80, 80);"></path><path class="link" marker-end="" d="M973,170.5, 729.5,360.5" style="stroke-width: 0.5; stroke-opacity: 1; stroke: rgb(80, 80, 80);"></path><path class="link" marker-end="" d="M973,170.5, 872.5,360.5" style="stroke-width: 0.5; stroke-opacity: 1; stroke: rgb(80, 80, 80);"></path><path class="link" marker-end="" d="M1043,170.5, 443.5,360.5" style="stroke-width: 0.5; stroke-opacity: 1; stroke: rgb(80, 80, 80);"></path><path class="link" marker-end="" d="M1043,170.5, 586.5,360.5" style="stroke-width: 0.5; stroke-opacity: 1; stroke: rgb(80, 80, 80);"></path><path class="link" marker-end="" d="M1043,170.5, 729.5,360.5" style="stroke-width: 0.5; stroke-opacity: 1; stroke: rgb(80, 80, 80);"></path><path class="link" marker-end="" d="M1043,170.5, 872.5,360.5" style="stroke-width: 0.5; stroke-opacity: 1; stroke: rgb(80, 80, 80);"></path><path class="link" marker-end="" d="M1113,170.5, 443.5,360.5" style="stroke-width: 0.5; stroke-opacity: 1; stroke: rgb(80, 80, 80);"></path><path class="link" marker-end="" d="M1113,170.5, 586.5,360.5" style="stroke-width: 0.5; stroke-opacity: 1; stroke: rgb(80, 80, 80);"></path><path class="link" marker-end="" d="M1113,170.5, 729.5,360.5" style="stroke-width: 0.5; stroke-opacity: 1; stroke: rgb(80, 80, 80);"></path><path class="link" marker-end="" d="M1113,170.5, 872.5,360.5" style="stroke-width: 0.5; stroke-opacity: 1; stroke: rgb(80, 80, 80);"></path><path class="link" marker-end="" d="M443.5,360.5, 658,550.5" style="stroke-width: 0.5; stroke-opacity: 1; stroke: rgb(80, 80, 80);"></path><path class="link" marker-end="" d="M586.5,360.5, 658,550.5" style="stroke-width: 0.5; stroke-opacity: 1; stroke: rgb(80, 80, 80);"></path><path class="link" marker-end="" d="M729.5,360.5, 658,550.5" style="stroke-width: 0.5; stroke-opacity: 1; stroke: rgb(80, 80, 80);"></path><path class="link" marker-end="" d="M872.5,360.5, 658,550.5" style="stroke-width: 0.5; stroke-opacity: 1; stroke: rgb(80, 80, 80);"></path><circle r="25" class="node" id="0_0" cx="203" cy="170.5" style="fill: rgb(198, 236, 172); stroke: rgb(51, 51, 51);"></circle><circle r="25" class="node" id="0_1" cx="273" cy="170.5" style="fill: rgb(198, 236, 172); stroke: rgb(51, 51, 51);"></circle><circle r="25" class="node" id="0_2" cx="343" cy="170.5" style="fill: rgb(198, 236, 172); stroke: rgb(51, 51, 51);"></circle><circle r="25" class="node" id="0_3" cx="413" cy="170.5" style="fill: rgb(198, 236, 172); stroke: rgb(51, 51, 51);"></circle><circle r="25" class="node" id="0_4" cx="483" cy="170.5" style="fill: rgb(198, 236, 172); stroke: rgb(51, 51, 51);"></circle><circle r="25" class="node" id="0_5" cx="553" cy="170.5" style="fill: rgb(198, 236, 172); stroke: rgb(51, 51, 51);"></circle><circle r="25" class="node" id="0_6" cx="623" cy="170.5" style="fill: rgb(198, 236, 172); stroke: rgb(51, 51, 51);"></circle><circle r="25" class="node" id="0_7" cx="693" cy="170.5" style="fill: rgb(198, 236, 172); stroke: rgb(51, 51, 51);"></circle><circle r="25" class="node" id="0_8" cx="763" cy="170.5" style="fill: rgb(198, 236, 172); stroke: rgb(51, 51, 51);"></circle><circle r="25" class="node" id="0_9" cx="833" cy="170.5" style="fill: rgb(198, 236, 172); stroke: rgb(51, 51, 51);"></circle><circle r="25" class="node" id="0_10" cx="903" cy="170.5" style="fill: rgb(198, 236, 172); stroke: rgb(51, 51, 51);"></circle><circle r="25" class="node" id="0_11" cx="973" cy="170.5" style="fill: rgb(198, 236, 172); stroke: rgb(51, 51, 51);"></circle><circle r="25" class="node" id="0_12" cx="1043" cy="170.5" style="fill: rgb(198, 236, 172); stroke: rgb(51, 51, 51);"></circle><circle r="25" class="node" id="0_13" cx="1113" cy="170.5" style="fill: rgb(198, 236, 172); stroke: rgb(51, 51, 51);"></circle><circle r="25" class="node" id="1_0" cx="443.5" cy="360.5" style="fill: rgb(198, 236, 172); stroke: rgb(51, 51, 51);"></circle><circle r="25" class="node" id="1_1" cx="586.5" cy="360.5" style="fill: rgb(198, 236, 172); stroke: rgb(51, 51, 51);"></circle><circle r="25" class="node" id="1_2" cx="729.5" cy="360.5" style="fill: rgb(198, 236, 172); stroke: rgb(51, 51, 51);"></circle><circle r="25" class="node" id="1_3" cx="872.5" cy="360.5" style="fill: rgb(198, 236, 172); stroke: rgb(51, 51, 51);"></circle><circle r="25" class="node" id="2_0" cx="658" cy="550.5" style="fill: rgb(198, 236, 172); stroke: rgb(51, 51, 51);"></circle><text class="text" dy=".35em" x="1183" y="170.5" style="font-size: 12px;"></text><text class="text" dy=".35em" x="1183" y="360.5" style="font-size: 12px;"></text><text class="text" dy=".35em" x="1183" y="550.5" style="font-size: 12px;"></text></g><defs><marker id="arrow" viewBox="0 -5 10 10" markerWidth="7" markerHeight="7" orient="auto" refX="82"><path d="M0,-5L10,0L0,5" style="stroke: rgb(80, 80, 80); fill: none;"></path></marker></defs></svg>