<svg xmlns="http://www.w3.org/2000/svg" width="1366" height="557" style="cursor: move;"><g transform="translate(472.1671867121955,133.53598649006395) scale(0.5)"><path class="link" marker-end="" d="M283,-201.5, 733,39" style="stroke-width: 0.5; stroke-opacity: 1; stroke: rgb(80, 80, 80);"></path><path class="link" marker-end="" d="M283,-201.5, 733,182" style="stroke-width: 0.5; stroke-opacity: 1; stroke: rgb(80, 80, 80);"></path><path class="link" marker-end="" d="M283,-201.5, 733,325" style="stroke-width: 0.5; stroke-opacity: 1; stroke: rgb(80, 80, 80);"></path><path class="link" marker-end="" d="M283,-201.5, 733,468" style="stroke-width: 0.5; stroke-opacity: 1; stroke: rgb(80, 80, 80);"></path><path class="link" marker-end="" d="M283,-131.5, 733,39" style="stroke-width: 0.5; stroke-opacity: 1; stroke: rgb(80, 80, 80);"></path><path class="link" marker-end="" d="M283,-131.5, 733,182" style="stroke-width: 0.5; stroke-opacity: 1; stroke: rgb(80, 80, 80);"></path><path class="link" marker-end="" d="M283,-131.5, 733,325" style="stroke-width: 0.5; stroke-opacity: 1; stroke: rgb(80, 80, 80);"></path><path class="link" marker-end="" d="M283,-131.5, 733,468" style="stroke-width: 0.5; stroke-opacity: 1; stroke: rgb(80, 80, 80);"></path><path class="link" marker-end="" d="M283,-61.5, 733,39" style="stroke-width: 0.5; stroke-opacity: 1; stroke: rgb(80, 80, 80);"></path><path class="link" marker-end="" d="M283,-61.5, 733,182" style="stroke-width: 0.5; stroke-opacity: 1; stroke: rgb(80, 80, 80);"></path><path class="link" marker-end="" d="M283,-61.5, 733,325" style="stroke-width: 0.5; stroke-opacity: 1; stroke: rgb(80, 80, 80);"></path><path class="link" marker-end="" d="M283,-61.5, 733,468" style="stroke-width: 0.5; stroke-opacity: 1; stroke: rgb(80, 80, 80);"></path><path class="link" marker-end="" d="M283,8.5, 733,39" style="stroke-width: 0.5; stroke-opacity: 1; stroke: rgb(80, 80, 80);"></path><path class="link" marker-end="" d="M283,8.5, 733,182" style="stroke-width: 0.5; stroke-opacity: 1; stroke: rgb(80, 80, 80);"></path><path class="link" marker-end="" d="M283,8.5, 733,325" style="stroke-width: 0.5; stroke-opacity: 1; stroke: rgb(80, 80, 80);"></path><path class="link" marker-end="" d="M283,8.5, 733,468" style="stroke-width: 0.5; stroke-opacity: 1; stroke: rgb(80, 80, 80);"></path><path class="link" marker-end="" d="M283,78.5, 733,39" style="stroke-width: 0.5; stroke-opacity: 1; stroke: rgb(80, 80, 80);"></path><path class="link" marker-end="" d="M283,78.5, 733,182" style="stroke-width: 0.5; stroke-opacity: 1; stroke: rgb(80, 80, 80);"></path><path class="link" marker-end="" d="M283,78.5, 733,325" style="stroke-width: 0.5; stroke-opacity: 1; stroke: rgb(80, 80, 80);"></path><path class="link" marker-end="" d="M283,78.5, 733,468" style="stroke-width: 0.5; stroke-opacity: 1; stroke: rgb(80, 80, 80);"></path><path class="link" marker-end="" d="M283,148.5, 733,39" style="stroke-width: 0.5; stroke-opacity: 1; stroke: rgb(80, 80, 80);"></path><path class="link" marker-end="" d="M283,148.5, 733,182" style="stroke-width: 0.5; stroke-opacity: 1; stroke: rgb(80, 80, 80);"></path><path class="link" marker-end="" d="M283,148.5, 733,325" style="stroke-width: 0.5; stroke-opacity: 1; stroke: rgb(80, 80, 80);"></path><path class="link" marker-end="" d="M283,148.5, 733,468" style="stroke-width: 0.5; stroke-opacity: 1; stroke: rgb(80, 80, 80);"></path><path class="link" marker-end="" d="M283,218.5, 733,39" style="stroke-width: 0.5; stroke-opacity: 1; stroke: rgb(80, 80, 80);"></path><path class="link" marker-end="" d="M283,218.5, 733,182" style="stroke-width: 0.5; stroke-opacity: 1; stroke: rgb(80, 80, 80);"></path><path class="link" marker-end="" d="M283,218.5, 733,325" style="stroke-width: 0.5; stroke-opacity: 1; stroke: rgb(80, 80, 80);"></path><path class="link" marker-end="" d="M283,218.5, 733,468" style="stroke-width: 0.5; stroke-opacity: 1; stroke: rgb(80, 80, 80);"></path><path class="link" marker-end="" d="M283,288.5, 733,39" style="stroke-width: 0.5; stroke-opacity: 1; stroke: rgb(80, 80, 80);"></path><path class="link" marker-end="" d="M283,288.5, 733,182" style="stroke-width: 0.5; stroke-opacity: 1; stroke: rgb(80, 80, 80);"></path><path class="link" marker-end="" d="M283,288.5, 733,325" style="stroke-width: 0.5; stroke-opacity: 1; stroke: rgb(80, 80, 80);"></path><path class="link" marker-end="" d="M283,288.5, 733,468" style="stroke-width: 0.5; stroke-opacity: 1; stroke: rgb(80, 80, 80);"></path><path class="link" marker-end="" d="M283,358.5, 733,39" style="stroke-width: 0.5; stroke-opacity: 1; stroke: rgb(80, 80, 80);"></path><path class="link" marker-end="" d="M283,358.5, 733,182" style="stroke-width: 0.5; stroke-opacity: 1; stroke: rgb(80, 80, 80);"></path><path class="link" marker-end="" d="M283,358.5, 733,325" style="stroke-width: 0.5; stroke-opacity: 1; stroke: rgb(80, 80, 80);"></path><path class="link" marker-end="" d="M283,358.5, 733,468" style="stroke-width: 0.5; stroke-opacity: 1; stroke: rgb(80, 80, 80);"></path><path class="link" marker-end="" d="M283,428.5, 733,39" style="stroke-width: 0.5; stroke-opacity: 1; stroke: rgb(80, 80, 80);"></path><path class="link" marker-end="" d="M283,428.5, 733,182" style="stroke-width: 0.5; stroke-opacity: 1; stroke: rgb(80, 80, 80);"></path><path class="link" marker-end="" d="M283,428.5, 733,325" style="stroke-width: 0.5; stroke-opacity: 1; stroke: rgb(80, 80, 80);"></path><path class="link" marker-end="" d="M283,428.5, 733,468" style="stroke-width: 0.5; stroke-opacity: 1; stroke: rgb(80, 80, 80);"></path><path class="link" marker-end="" d="M283,498.5, 733,39" style="stroke-width: 0.5; stroke-opacity: 1; stroke: rgb(80, 80, 80);"></path><path class="link" marker-end="" d="M283,498.5, 733,182" style="stroke-width: 0.5; stroke-opacity: 1; stroke: rgb(80, 80, 80);"></path><path class="link" marker-end="" d="M283,498.5, 733,325" style="stroke-width: 0.5; stroke-opacity: 1; stroke: rgb(80, 80, 80);"></path><path class="link" marker-end="" d="M283,498.5, 733,468" style="stroke-width: 0.5; stroke-opacity: 1; stroke: rgb(80, 80, 80);"></path><path class="link" marker-end="" d="M283,568.5, 733,39" style="stroke-width: 0.5; stroke-opacity: 1; stroke: rgb(80, 80, 80);"></path><path class="link" marker-end="" d="M283,568.5, 733,182" style="stroke-width: 0.5; stroke-opacity: 1; stroke: rgb(80, 80, 80);"></path><path class="link" marker-end="" d="M283,568.5, 733,325" style="stroke-width: 0.5; stroke-opacity: 1; stroke: rgb(80, 80, 80);"></path><path class="link" marker-end="" d="M283,568.5, 733,468" style="stroke-width: 0.5; stroke-opacity: 1; stroke: rgb(80, 80, 80);"></path><path class="link" marker-end="" d="M283,638.5, 733,39" style="stroke-width: 0.5; stroke-opacity: 1; stroke: rgb(80, 80, 80);"></path><path class="link" marker-end="" d="M283,638.5, 733,182" style="stroke-width: 0.5; stroke-opacity: 1; stroke: rgb(80, 80, 80);"></path><path class="link" marker-end="" d="M283,638.5, 733,325" style="stroke-width: 0.5; stroke-opacity: 1; stroke: rgb(80, 80, 80);"></path><path class="link" marker-end="" d="M283,638.5, 733,468" style="stroke-width: 0.5; stroke-opacity: 1; stroke: rgb(80, 80, 80);"></path><path class="link" marker-end="" d="M283,708.5, 733,39" style="stroke-width: 0.5; stroke-opacity: 1; stroke: rgb(80, 80, 80);"></path><path class="link" marker-end="" d="M283,708.5, 733,182" style="stroke-width: 0.5; stroke-opacity: 1; stroke: rgb(80, 80, 80);"></path><path class="link" marker-end="" d="M283,708.5, 733,325" style="stroke-width: 0.5; stroke-opacity: 1; stroke: rgb(80, 80, 80);"></path><path class="link" marker-end="" d="M283,708.5, 733,468" style="stroke-width: 0.5; stroke-opacity: 1; stroke: rgb(80, 80, 80);"></path><path class="link" marker-end="" d="M733,39, 1183,253.5" style="stroke-width: 0.5; stroke-opacity: 1; stroke: rgb(80, 80, 80);"></path><path class="link" marker-end="" d="M733,182, 1183,253.5" style="stroke-width: 0.5; stroke-opacity: 1; stroke: rgb(80, 80, 80);"></path><path class="link" marker-end="" d="M733,325, 1183,253.5" style="stroke-width: 0.5; stroke-opacity: 1; stroke: rgb(80, 80, 80);"></path><path class="link" marker-end="" d="M733,468, 1183,253.5" style="stroke-width: 0.5; stroke-opacity: 1; stroke: rgb(80, 80, 80);"></path><circle r="25" class="node" id="0_0" cx="283" cy="-201.5" style="fill: rgb(198, 236, 172); stroke: rgb(51, 51, 51);"></circle><circle r="25" class="node" id="0_1" cx="283" cy="-131.5" style="fill: rgb(198, 236, 172); stroke: rgb(51, 51, 51);"></circle><circle r="25" class="node" id="0_2" cx="283" cy="-61.5" style="fill: rgb(198, 236, 172); stroke: rgb(51, 51, 51);"></circle><circle r="25" class="node" id="0_3" cx="283" cy="8.5" style="fill: rgb(198, 236, 172); stroke: rgb(51, 51, 51);"></circle><circle r="25" class="node" id="0_4" cx="283" cy="78.5" style="fill: rgb(198, 236, 172); stroke: rgb(51, 51, 51);"></circle><circle r="25" class="node" id="0_5" cx="283" cy="148.5" style="fill: rgb(198, 236, 172); stroke: rgb(51, 51, 51);"></circle><circle r="25" class="node" id="0_6" cx="283" cy="218.5" style="fill: rgb(198, 236, 172); stroke: rgb(51, 51, 51);"></circle><circle r="25" class="node" id="0_7" cx="283" cy="288.5" style="fill: rgb(198, 236, 172); stroke: rgb(51, 51, 51);"></circle><circle r="25" class="node" id="0_8" cx="283" cy="358.5" style="fill: rgb(198, 236, 172); stroke: rgb(51, 51, 51);"></circle><circle r="25" class="node" id="0_9" cx="283" cy="428.5" style="fill: rgb(198, 236, 172); stroke: rgb(51, 51, 51);"></circle><circle r="25" class="node" id="0_10" cx="283" cy="498.5" style="fill: rgb(198, 236, 172); stroke: rgb(51, 51, 51);"></circle><circle r="25" class="node" id="0_11" cx="283" cy="568.5" style="fill: rgb(198, 236, 172); stroke: rgb(51, 51, 51);"></circle><circle r="25" class="node" id="0_12" cx="283" cy="638.5" style="fill: rgb(198, 236, 172); stroke: rgb(51, 51, 51);"></circle><circle r="25" class="node" id="0_13" cx="283" cy="708.5" style="fill: rgb(198, 236, 172); stroke: rgb(51, 51, 51);"></circle><circle r="25" class="node" id="1_0" cx="733" cy="39" style="fill: rgb(198, 236, 172); stroke: rgb(51, 51, 51);"></circle><circle r="25" class="node" id="1_1" cx="733" cy="182" style="fill: rgb(198, 236, 172); stroke: rgb(51, 51, 51);"></circle><circle r="25" class="node" id="1_2" cx="733" cy="325" style="fill: rgb(198, 236, 172); stroke: rgb(51, 51, 51);"></circle><circle r="25" class="node" id="1_3" cx="733" cy="468" style="fill: rgb(198, 236, 172); stroke: rgb(51, 51, 51);"></circle><circle r="25" class="node" id="2_0" cx="1183" cy="253.5" style="fill: rgb(198, 236, 172); stroke: rgb(51, 51, 51);"></circle><text class="text" dy=".35em" x="248" y="778.5" style="font-size: 12px;"></text><text class="text" dy=".35em" x="698" y="778.5" style="font-size: 12px;"></text><text class="text" dy=".35em" x="1148" y="778.5" style="font-size: 12px;"></text></g><defs><marker id="arrow" viewBox="0 -5 10 10" markerWidth="7" markerHeight="7" orient="auto" refX="82"><path d="M0,-5L10,0L0,5" style="stroke: rgb(80, 80, 80); fill: none;"></path></marker></defs></svg>